<svg width="60" height="60" viewBox="0 0 60 60" fill="none" xmlns="http://www.w3.org/2000/svg">
<rect width="60" height="60" rx="15" fill="#1C1B1F"/>
<rect width="60" height="60" rx="15" fill="#D0BCFF" fill-opacity="0.11"/>
<path d="M37.7834 31.8833C40.0667 33.4333 41.6667 35.5333 41.6667 38.3333V43.3333H48.3334V38.3333C48.3334 34.7 42.3834 32.55 37.7834 31.8833Z" fill="#D0BCFF"/>
<path d="M35 30C38.6834 30 41.6667 27.0167 41.6667 23.3333C41.6667 19.65 38.6834 16.6667 35 16.6667C34.2167 16.6667 33.4834 16.8333 32.7834 17.0667C34.1667 18.7833 35 20.9667 35 23.3333C35 25.7 34.1667 27.8833 32.7834 29.6C33.4834 29.8333 34.2167 30 35 30Z" fill="#D0BCFF"/>
<path d="M25 30C28.6834 30 31.6667 27.0167 31.6667 23.3333C31.6667 19.65 28.6834 16.6667 25 16.6667C21.3167 16.6667 18.3334 19.65 18.3334 23.3333C18.3334 27.0167 21.3167 30 25 30ZM25 20C26.8334 20 28.3334 21.5 28.3334 23.3333C28.3334 25.1667 26.8334 26.6667 25 26.6667C23.1667 26.6667 21.6667 25.1667 21.6667 23.3333C21.6667 21.5 23.1667 20 25 20Z" fill="#D0BCFF"/>
<path d="M25 31.6667C20.55 31.6667 11.6667 33.9 11.6667 38.3333V43.3333H38.3334V38.3333C38.3334 33.9 29.45 31.6667 25 31.6667ZM35 40H15V38.35C15.3334 37.15 20.5 35 25 35C29.5 35 34.6667 37.15 35 38.3333V40Z" fill="#D0BCFF"/>
</svg>
